P3
64 64
255
26
17
19
26
21
18
27
20
18
29
19
18
28
21
17
27
20
19
27
20
18
28
19
20
27
22
21
27
21
19
27
22
19
28
23
18
28
23
16
27
22
15
27
24
17
27
23
18
28
23
14
26
23
16
28
23
16
29
22
18
26
21
17
27
22
20
27
23
14
27
22
14
26
21
16
27
21
16
29
20
16
30
20
13
27
20
17
30
22
12
28
19
10
30
20
12
27
21
16
30
20
15
29
20
15
30
21
17
29
20
12
29
19
15
29
20
15
29
22
15
27
21
14
30
21
16
30
20
15
30
20
16
31
21
14
30
21
13
29
19
11
30
21
16
30
17
17
30
19
17
28
19
14
27
17
15
25
15
13
25
15
14
21
17
14
22
15
13
24
14
18
21
16
16
22
15
14
18
16
13
21
14
14
20
15
16
20
14
13
18
16
14
26
21
19
26
21
19
26
21
18
30
20
19
27
23
17
27
22
21
27
22
19
30
20
18
25
22
17
27
24
19
26
21
17
29
22
16
29
21
20
28
22
20
28
23
17
29
24
17
28
24
15
28
23
17
27
22
17
28
23
19
27
20
19
28
23
17
27
22
15
31
21
15
29
24
14
27
20
15
30
20
11
27
22
13
27
21
17
27
23
13
27
24
12
30
21
16
29
20
16
27
20
15
26
21
15
29
22
15
30
21
13
27
21
15
28
20
15
29
19
15
30
20
16
28
22
16
27
22
14
27
23
12
30
20
12
30
21
11
31
23
13
29
19
13
29
19
17
29
19
17
27
17
15
26
16
15
26
16
15
26
16
14
25
15
13
25
15
13
20
16
14
21
16
13
20
16
13
19
16
13
20
15
13
22
14
11
20
14
11
18
17
16
27
22
19
27
21
17
26
21
18
31
20
19
28
22
19
27
21
18
27
22
17
29
20
18
26
22
19
26
23
15
26
25
19
26
22
18
28
22
18
28
23
19
26
22
19
26
23
19
27
22
18
30
24
20
29
24
20
27
22
18
26
25
18
27
24
17
31
23
17
30
21
16
28
22
16
27
22
16
28
23
17
28
22
17
26
21
15
30
22
16
27
21
16
26
20
15
27
21
16
26
22
14
30
21
15
29
22
13
26
21
15
26
21
15
28
21
16
26
21
15
27
23
15
29
20
15
30
21
16
30
21
16
28
22
16
27
22
16
27
21
15
30
21
16
30
19
17
27
17
15
24
19
16
27
17
16
25
15
14
25
15
14
24
14
13
25
15
14
25
14
13
21
17
13
21
16
13
22
18
15
21
16
12
20
15
12
22
16
14
20
16
16
27
20
21
29
23
20
27
22
19
28
22
18
26
21
18
27
22
19
26
22
19
25
21
18
28
24
17
27
23
14
28
22
18
27
24
17
25
22
15
29
23
16
28
23
19
31
23
16
28
23
19
28
23
18
27
22
17
29
24
18
29
23
17
28
23
17
28
23
17
28
23
15
31
22
17
29
22
15
28
23
13
27
23
12
27
22
14
25
19
14
27
20
18
25
20
12
27
20
17
30
19
14
27
22
16
27
21
15
26
21
15
26
21
15
26
21
16
29
25
15
27
21
16
27
23
13
27
23
14
27
21
18
30
21
16
28
20
16
26
21
16
27
21
17
25
20
16
26
20
17
24
19
15
25
15
14
25
16
14
20
16
14
24
14
13
24
16
14
22
17
14
21
16
13
21
16
13
22
17
14
21
16
13
20
14
14
21
16
15
20
15
12
27
22
19
25
22
17
26
23
18
27
23
18
28
23
20
27
22
18
28
23
20
28
23
20
28
23
20
28
24
16
31
22
17
29
23
18
28
24
17
28
23
17
29
24
20
29
24
19
28
24
16
28
24
13
30
26
15
28
23
18
28
23
19
27
25
18
28
22
16
27
23
17
27
23
14
28
23
18
27
21
15
26
23
16
26
21
15
26
21
15
25
19
14
26
21
12
27
21
16
27
21
14
27
22
17
27
22
14
26
22
14
27
23
13
27
23
12
27
23
12
25
22
14
28
21
15
28
22
16
30
21
16
29
20
13
28
21
11
28
23
12
29
18
18
27
19
17
27
17
15
27
17
16
23
18
15
22
17
11
23
18
14
22
17
13
23
18
14
21
16
12
21
16
12
21
16
13
21
16
13
20
17
14
20
15
12
20
15
13
18
15
14
27
23
17
29
26
19
27
24
17
29
22
19
27
23
20
30
22
18
28
24
21
29
24
21
30
24
21
28
26
21
29
24
20
31
24
20
29
24
15
30
25
19
32
21
19
30
25
18
29
24
19
30
26
16
30
25
20
29
24
19
26
24
19
27
25
19
27
23
18
28
23
16
28
24
14
28
24
14
28
23
18
28
23
17
27
21
16
27
22
16
26
21
15
26
21
12
26
21
16
26
20
17
25
19
14
26
20
15
28
22
13
27
21
15
28
21
13
26
21
17
27
21
17
30
20
18
30
20
17
27
23
12
28
23
15
29
21
17
29
19
13
29
20
13
28
19
13
26
16
15
24
18
15
23
18
14
22
17
12
21
18
14
25
16
14
24
15
13
23
14
11
20
16
13
20
16
12
21
17
13
20
15
12
23
14
14
20
17
12
17
16
12
28
24
20
29
25
18
29
24
19
29
24
19
29
24
18
29
23
20
29
24
21
28
25
18
28
25
18
26
25
21
28
24
20
29
24
20
29
25
19
28
25
20
28
23
17
28
25
17
29
26
17
30
26
15
29
25
19
29
24
20
30
24
20
29
25
18
29
25
17
29
25
15
28
24
13
28
24
13
28
24
14
28
24
14
27
23
15
27
21
13
27
21
16
27
23
14
26
21
16
27
22
15
26
20
15
27
20
13
30
20
13
27
21
15
28
20
12
26
19
15
26
17
16
24
17
13
26
19
14
26
21
15
26
20
14
27
21
14
27
20
15
26
19
16
26
18
14
24
17
16
22
17
14
25
16
14
25
17
12
26
16
14
25
15
13
24
16
13
23
16
13
21
17
14
21
17
11
22
17
10
21
16
13
22
16
13
20
16
12
18
16
13
29
25
20
30
25
19
27
25
19
29
24
19
30
26
15
28
24
15
27
24
18
29
24
20
27
25
19
28
24
18
28
24
18
30
23
19
29
22
19
28
25
16
29
26
15
29
25
14
31
24
17
30
26
17
30
26
19
30
25
20
30
25
19
30
25
19
30
25
18
32
24
15
30
25
15
29
26
15
29
25
14
28
24
16
27
23
15
28
23
15
25
19
14
25
19
11
23
19
15
27
21
16
28
22
17
25
20
11
38
21
14
62
35
28
45
24
18
24
14
13
25
16
14
24
18
13
24
18
13
27
19
17
27
21
16
26
20
14
24
19
13
24
19
14
24
19
15
25
19
17
22
17
13
24
17
14
24
17
14
24
16
13
23
16
13
23
17
14
21
16
12
22
17
14
21
16
14
21
17
14
20
16
13
19
14
11
21
16
15
19
15
14
29
24
20
30
24
20
27
25
19
30
25
20
29
24
18
28
24
19
28
23
20
29
23
16
27
24
18
30
23
19
30
24
20
29
25
19
30
25
20
30
25
19
30
26
17
30
25
17
29
24
18
30
25
21
31
26
17
30
26
17
30
25
16
30
25
18
30
25
19
33
24
19
29
24
14
29
25
14
28
24
13
28
24
17
26
21
16
24
18
13
23
18
13
25
18
13
24
19
15
26
21
14
28
21
12
104
57
46
198
107
93
200
104
89
181
87
77
132
66
55
43
22
15
23
18
13
25
19
14
28
18
17
26
18
13
25
19
13
26
18
14
26
18
13
25
19
14
24
18
16
23
18
13
22
17
13
23
18
14
23
18
14
23
18
14
23
18
15
22
18
15
23
18
15
20
16
13
21
17
14
20
16
13
20
15
12
20
16
12
20
16
15
29
24
20
29
25
18
28
25
16
30
25
19
29
26
18
28
25
20
30
25
19
33
25
19
28
25
19
31
23
20
30
24
17
30
26
18
29
25
17
29
25
19
30
25
20
31
26
20
30
25
18
29
26
18
31
23
21
30
25
19
31
26
19
31
26
20
31
25
18
32
24
17
34
23
15
64
38
28
83
46
35
66
36
26
32
20
15
24
19
12
24
18
15
24
17
15
23
18
14
23
19
12
66
35
25
208
120
102
214
116
101
215
111
103
190
89
84
163
83
71
84
45
35
23
18
13
25
18
15
27
18
16
27
18
12
27
18
12
25
18
11
27
17
16
27
17
14
27
17
16
24
19
14
23
18
14
24
19
14
22
17
13
23
18
14
24
17
12
24
17
10
22
17
15
20
16
13
21
17
14
20
15
12
21
16
12
21
16
12
22
15
12
29
26
19
29
26
20
29
26
20
30
25
16
29
26
17
29
26
19
31
25
17
32
23
18
32
24
19
31
26
22
30
26
15
28
24
13
29
25
14
29
26
18
30
25
19
29
23
16
29
26
15
28
25
19
31
24
20
30
26
18
30
26
15
30
25
17
29
24
17
32
20
13
146
86
75
214
117
101
203
106
90
182
85
77
122
55
46
28
20
10
24
19
14
26
17
15
22
18
14
22
15
10
115
67
58
214
119
106
218
118
104
211
106
100
196
100
93
169
90
79
80
38
33
25
16
13
24
18
13
27
18
10
28
19
11
26
18
10
23
19
10
26
18
13
27
18
11
25
16
9
25
20
15
23
18
14
23
18
13
23
18
14
23
18
15
23
17
12
21
16
12
23
17
14
23
17
13
22
17
14
21
16
13
22
17
13
21
16
12
22
15
11
30
25
21
31
26
23
30
26
23
30
25
17
33
25
19
31
24
18
29
24
18
30
26
19
29
25
18
30
25
18
29
24
20
29
26
16
28
26
14
34
25
15
29
26
19
30
26
17
30
26
15
30
25
19
30
25
16
31
26
20
34
24
20
31
26
15
29
25
15
87
52
44
210
116
105
215
112
101
211
111
101
190
91
86
159
74
65
42
20
13
23
19
11
26
17
14
23
18
14
21
12
7
142
87
72
218
125
114
218
115
106
210
105
101
194
93
87
170
85
78
67
33
27
26
17
12
26
17
12
28
18
14
27
18
13
24
17
13
24
19
15
25
18
13
24
19
13
24
19
13
24
19
15
23
18
12
23
18
13
24
18
15
25
15
13
24
17
13
23
18
12
25
15
13
25
15
13
23
16
13
24
13
11
20
15
11
22
17
12
19
16
12
30
27
18
29
27
17
32
25
19
30
25
18
31
26
20
30
25
21
30
26
18
31
27
16
31
27
15
30
26
15
30
25
21
32
24
20
32
23
18
30
25
19
30
25
19
30
25
20
29
24
20
33
24
18
31
25
16
29
27
15
35
25
17
32
26
15
30
25
14
126
73
64
215
117
108
215
110
103
209
105
101
194
97
92
168
83
74
52
24
18
21
17
13
22
17
13
23
17
15
24
14
6
175
94
89
217
115
109
220
116
111
206
108
100
193
99
88
157
78
68
60
26
23
26
16
12
26
17
12
26
16
12
70
35
30
109
52
44
86
42
33
34
20
10
24
18
14
23
18
14
24
19
14
26
16
14
26
16
14
28
18
16
26
16
14
24
17
14
22
17
13
22
17
12
22
17
11
21
17
9
21
17
13
24
14
13
23
15
13
21
16
12
27
28
19
30
28
15
30
28
15
31
26
20
32
27
21
32
27
21
30
27
20
32
27
21
32
27
19
30
25
17
30
25
22
30
25
19
29
24
18
29
24
18
30
25
19
30
25
18
30
26
13
31
27
16
30
26
15
31
27
16
33
24
15
32
23
14
36
25
16
150
84
74
221
121
115
218
115
110
217
110
107
203
103
97
170
81
73
52
22
17
24
16
10
23
17
10
22
17
14
36
19
12
185
103
95
215
118
111
203
110
102
188
94
86
180
88
81
143
73
65
48
23
17
22
16
12
24
17
13
99
49
42
151
67
58
163
75
64
156
70
62
118
53
44
41
22
15
25
17
13
24
18
14
25
15
13
25
17
13
22
17
13
25
15
13
23
16
13
21
17
13
23
18
14
21
18
11
21
18
11
26
16
13
25
15
14
24
16
15
21
16
12
34
25
20
34
27
23
32
27
24
36
26
20
32
27
21
31
27
16
31
30
16
31
26
19
31
26
20
30
26
19
30
26
15
30
25
19
31
26
19
31
27
20
32
27
20
31
27
20
31
27
20
34
24
16
31
25
15
30
26
21
33
24
14
33
24
15
38
27
18
160
96
85
226
135
124
223
126
115
224
119
113
205
104
98
172
83
75
47
21
14
18
15
11
21
16
12
20
15
11
49
26
20
194
107
95
221
126
116
211
119
102
189
98
87
173
87
79
132
68
57
35
17
11
23
14
9
31
17
11
110
52
44
156
71
64
164
70
65
158
70
61
131
57
49
56
27
19
23
16
13
22
17
13
23
18
15
22
16
13
25
16
13
25
16
10
24
17
15
22
17
14
22
17
13
22
17
11
22
17
11
23
17
12
21
19
14
22
19
14
22
17
10
32
27
21
33
27
19
30
29
21
32
27
20
31
28
20
30
28
20
33
26
20
32
27
20
32
28
19
32
28
16
31
28
16
34
26
19
35
26
20
34
25
19
34
24
19
34
26
19
30
27
14
35
26
16
34
25
19
33
24
18
34
25
15
33
24
15
38
27
18
157
94
83
219
131
122
214
118
111
210
108
103
195
100
92
159
75
69
43
16
14
16
14
10
22
13
11
18
16
11
60
34
26
210
127
112
227
134
119
209
115
103
196
107
97
176
90
79
132
67
60
26
13
9
18
14
11
26
14
11
119
55
50
158
73
63
166
70
70
160
68
62
142
65
58
62
29
22
22
16
13
21
16
12
25
16
14
23
15
12
21
17
12
22
18
13
24
17
13
25
16
13
23
18
14
21
18
13
25
15
12
26
16
12
26
16
11
25
17
13
22
18
14
30
27
24
33
29
22
33
27
20
33
29
17
33
29
17
33
29
18
34
28
20
34
29
17
33
29
20
33
28
21
32
28
17
34
27
17
35
26
17
35
26
16
31
27
16
30
27
15
30
27
15
35
25
19
33
24
17
34
25
16
33
24
18
32
27
16
33
27
19
151
86
75
221
122
116
220
121
113
214
115
107
200
105
94
164
81
73
42
17
13
16
12
10
19
16
12
19
13
9
86
51
40
215
126
112
219
125
113
200
106
94
190
103
88
169
88
78
125
64
58
22
10
5
18
12
9
31
13
12
129
62
56
163
75
71
167
74
70
161
66
62
143
62
57
60
26
19
22
16
11
21
17
13
25
15
13
24
14
12
24
14
12
22
17
14
25
17
15
25
15
13
23
18
14
25
15
14
26
16
15
26
16
12
24
19
15
24
17
14
26
16
15
35
31
21
35
31
20
34
30
19
34
29
22
36
27
20
36
27
23
37
28
22
33
28
22
34
28
22
36
27
22
33
28
22
36
28
20
34
25
16
36
27
22
35
27
18
35
25
16
35
25
16
31
26
17
33
26
17
34
25
16
35
26
17
35
25
16
39
27
21
165
97
86
233
143
132
224
129
118
216
120
108
203
111
103
172
92
80
54
23
17
18
10
10
24
14
12
19
15
12
110
63
56
214
124
111
214
120
108
196
108
94
185
100
89
165
85
75
124
63
56
22
10
7
17
12
10
37
17
13
134
68
63
161
79
71
158
70
65
155
71
65
135
62
55
52
23
19
22
15
10
21
17
13
22
18
14
22
17
13
25
17
14
25
14
12
25
18
14
22
17
13
22
17
13
23
18
14
22
17
13
23
18
15
23
18
12
23
18
13
22
17
14
36
30
20
34
30
18
35
31
20
37
29
18
35
30
19
35
30
25
34
29
22
33
29
19
34
27
17
35
26
17
36
27
23
34
28
20
33
29
16
35
25
17
35
26
21
35
26
20
34
25
19
32
28
18
31
27
19
31
27
16
35
26
20
33
24
16
38
26
17
170
102
90
230
137
126
224
132
120
212
120
109
197
105
99
176
89
80
81
36
31
15
9
8
19
15
13
20
14
12
131
75
68
214
124
113
203
110
100
185
95
86
170
84
77
159
79
69
122
63
52
20
9
7
15
11
9
52
21
18
146
72
64
162
77
72
157
74
64
144
65
56
126
59
50
44
22
16
20
15
12
21
16
12
21
16
12
22
17
13
21
16
13
22
17
13
24
16
14
26
17
11
22
18
14
24
16
15
26
16
15
22
17
13
23
18
14
24
17
13
23
19
12
37
28
23
35
29
22
34
29
23
35
29
23
32
29
23
32
29
23
34
29
22
34
29
22
32
29
22
32
27
21
36
27
21
34
28
19
32
28
17
35
26
17
35
26
17
35
26
17
35
26
17
35
26
19
35
25
17
35
26
17
34
25
16
33
26
19
41
28
17
182
106
97
228
139
129
220
126
119
212
116
110
196
104
97
179
91
85
113
51
43
14
8
4
23
13
12
29
16
14
149
85
75
205
120
106
194
109
96
170
83
76
159
78
70
151
72
64
123
60
58
22
10
7
14
12
7
68
29
24
157
79
71
167
84
75
165
81
71
154
77
69
124
60
51
38
19
14
21
15
12
21
16
13
24
14
13
24
15
14
25
15
13
23
18
14
23
17
13
26
18
12
43
22
17
49
25
18
29
18
11
26
17
12
23
18
15
25
18
15
23
18
16
35
30
24
34
29
24
33
29
19
34
30
18
34
29
22
34
29
21
34
30
19
37
28
18
35
29
18
36
27
18
37
28
19
37
28
18
36
27
21
37
28
22
37
28
19
36
27
18
35
26
17
36
27
18
35
26
17
34
25
16
34
25
16
32
26
19
45
30
20
196
114
109
228
137
129
214
125
116
204
115
107
188
100
93
177
91
86
143
67
63
28
12
6
21
11
10
33
18
16
154
83
77
182
101
91
174
96
87
153
75
67
154
77
70
138
66
59
120
60
49
24
10
6
12
8
6
84
40
36
161
83
72
164
83
72
163
78
68
155
78
68
125
65
55
34
18
14
18
14
11
20
16
13
21
16
12
23
18
14
21
16
12
24
17
12
36
20
13
128
64
55
154
67
64
151
67
60
126
57
47
49
25
18
22
17
11
22
17
11
23
18
14
38
30
22
37
31
24
35
31
20
38
29
20
38
30
19
38
29
22
37
29
22
34
30
18
35
30
21
34
29
18
37
27
19
37
28
19
36
28
18
34
29
19
35
26
17
35
27
18
33
28
17
36
27
18
35
26
17
35
26
17
36
27
21
34
27
19
49
31
22
199
118
105
217
128
120
211
122
111
206
116
107
187
99
91
174
88
79
145
68
56
52
22
20
18
13
10
32
18
15
154
83
76
186
104
97
178
96
86
163
77
68
158
75
68
149
71
66
122
59
51
25
11
7
14
7
2
114
56
50
168
91
80
168
84
73
161
78
73
151
75
72
123
62
50
34
18
14
22
14
13
20
16
13
21
16
12
22
16
13
19
15
12
21
13
10
93
43
36
149
65
62
155
65
62
148
63
58
136
58
50
79
39
29
23
18
14
24
18
14
22
18
13
35
31
22
35
31
19
35
31
20
38
28
22
37
29
19
38
29
21
38
30
21
36
30
18
37
30
20
35
28
22
37
28
18
37
28
19
37
28
19
36
29
19
38
29
19
36
27
18
34
27
17
36
27
18
35
26
17
35
26
17
36
27
21
34
27
19
45
30
21
183
106
98
221
135
126
227
134
126
216
119
112
202
108
102
188
96
89
168
84
74
74
35
29
17
12
9
33
18
15
161
92
81
194
106
98
182
93
83
170
80
71
161
74
66
153
72
67
123
61
53
22
11
7
21
7
3
136
71
64
165
86
78
162
85
72
157
79
68
152
75
67
119
59
46
34
17
13
24
14
12
20
16
12
23
15
13
21
14
11
15
10
9
30
12
10
136
64
57
161
73
71
155
66
62
151
67
61
137
60
53
68
32
25
25
15
13
26
17
14
25
17
15
36
32
24
36
33
20
36
32
20
38
29
21
38
30
23
38
31
23
35
29
22
38
30
18
38
30
18
38
30
18
37
28
19
37
28
19
38
29
19
38
29
19
36
29
19
35
28
18
35
27
17
35
27
16
36
28
18
35
26
17
33
27
19
34
27
18
41
29
19
173
103
94
234
144
131
239
139
130
228
124
119
211
115
106
203
106
100
176
88
78
91
42
38
18
10
9
34
17
16
162
91
80
192
104
96
185
96
88
176
87
77
169
79
73
159
77
68
117
56
51
14
5
4
50
23
18
142
70
60
155
77
70
150
73
65
151
72
67
154
78
72
118
59
52
32
17
14
23
14
12
20
16
13
21
14
12
17
11
10
10
4
4
88
42
36
154
74
70
162
77
68
156
70
64
149
62
57
124
59
49
41
24
16
22
17
13
24
18
13
23
16
14
40
31
25
37
32
21
35
31
19
39
30
20
40
31
21
39
28
21
37
30
25
37
30
19
37
30
20
37
28
20
37
30
20
36
30
20
36
29
18
37
29
20
34
29
18
34
29
18
35
29
18
36
28
17
36
27
17
36
27
18
34
28
19
34
26
18
36
27
16
147
91
78
239
150
137
243
149
138
233
139
129
218
119
112
210
116
106
186
97
87
104
48
41
20
10
9
32
17
15
153
79
72
188
99
91
182
93
84
175
86
76
168
80
73
157
75
66
101
44
41
9
2
1
91
44
39
165
88
78
166
81
75
156
74
65
150
68
62
141
64
57
108
52
39
30
16
12
23
14
12
19
15
13
19
14
11
13
8
6
38
16
15
137
66
60
154
76
65
149
69
63
150
68
65
141
63
56
97
46
35
27
15
10
24
17
14
24
17
14
22
17
14
38
30
20
38
33
23
37
33
23
40
30
20
38
30
19
40
29
23
39
30
25
36
31
19
36
31
20
37
30
20
36
30
21
35
29
21
35
29
18
36
26
18
35
29
19
35
29
19
35
29
21
36
27
18
36
27
18
36
27
18
35
26
17
34
26
18
34
24
16
123
75
67
238
153
139
244
154
139
234
140
130
224
136
122
208
118
108
187
97
88
115
52
47
22
11
10
29
15
13
139
70
63
177
89
81
175
86
80
171
80
77
162
78
70
151
68
62
71
32
25
15
6
4
136
71
62
176
93
81
175
88
79
168
84
73
162
79
71
149
71
65
105
48
42
28
15
10
23
14
12
20
16
13
16
11
9
14
6
4
106
58
48
155
81
71
151
72
63
144
67
59
138
65
58
126
57
50
51
25
17
23
15
12
26
16
15
25
16
14
22
17
13
36
32
23
37
32
26
37
32
25
40
31
20
39
30
21
39
30
21
39
30
21
37
30
20
34
32
21
32
28
17
34
24
19
33
24
19
32
23
18
32
23
15
33
24
19
32
23
17
33
24
15
35
26
17
36
27
18
36
27
18
36
27
21
36
26
22
35
26
18
103
66
53
237
154
141
244
154
143
229
135
127
220
129
121
206
115
108
180
92
83
126
56
51
26
10
9
28
13
13
128
59
57
167
87
78
164
81
75
159
75
72
150
71
65
134
61
56
48
18
16
30
12
11
147
76
66
181
95
85
177
93
82
174
91
78
166
82
72
147
71
62
91
41
34
21
15
11
18
15
12
18
13
10
12
9
4
53
24
21
149
76
63
158
82
68
156
77
67
149
75
65
145
72
61
89
42
32
23
15
11
25
15
14
25
15
13
24
16
13
23
17
13
36
32
23
37
33
22
36
32
21
40
31
24
40
32
22
38
30
24
36
31
21
35
31
19
32
25
19
32
23
18
32
23
18
33
24
16
33
24
16
32
23
18
32
23
18
32
23
18
33
24
17
33
24
18
33
24
18
37
28
21
36
27
20
35
26
21
35
26
17
80
50
39
232
149
138
238
152
145
220
130
122
206
116
108
199
109
101
182
95
86
172
86
82
159
83
73
144
77
68
159
79
74
167
80
80
167
81
71
156
75
64
148
70
61
128
58
53
32
11
9
36
17
14
144
70
61
176
95
82
174
90
80
174
89
81
164
81
73
138
64
53
54
25
18
18
14
11
22
13
12
14
9
9
25
7
8
135
71
62
157
78
72
155
77
68
153
80
67
147
73
64
130
67
52
44
24
15
24
16
13
26
16
14
23
18
14
24
18
13
27
18
13
38
31
21
38
34
23
37
32
21
40
31
21
36
32
20
38
32
25
39
31
21
34
25
16
34
25
17
33
24
19
33
24
19
33
24
16
33
24
18
32
23
18
33
23
19
32
23
15
32
23
14
32
23
18
32
23
16
32
23
18
35
26
21
36
27
18
36
27
18
57
38
26
215
130
116
223
132
123
226
136
127
213
120
113
203
114
106
184
97
88
177
91
84
167
85
77
164
80
76
164
80
75
167
78
74
171
78
76
166
78
70
160
76
68
153
72
66
121
63
58
84
37
31
150
77
66
167
87
78
162
78
73
161
82
72
155
74
70
113
51
44
25
11
5
18
14
11
17
12
9
26
10
9
116
56
50
145
72
64
147
69
61
154
76
69
153
75
64
147
71
62
101
51
40
29
18
12
28
19
14
23
18
12
26
16
14
25
17
14
22
17
13
40
31
25
40
32
20
41
33
21
39
31
20
37
33
21
36
33
25
35
31
20
33
24
15
32
23
16
32
23
18
31
22
17
33
24
16
32
23
14
33
24
18
33
24
19
32
23
18
32
23
18
33
24
18
32
23
18
33
24
19
31
22
17
32
23
18
33
26
19
41
27
16
203
118
109
224
138
129
223
136
127
207
115
108
200
107
101
191
99
94
182
89
87
175
82
79
171
83
78
169
82
75
172
83
79
173
84
80
172
83
75
168
82
77
162
82
75
162
81
74
161
81
77
161
82
74
163
78
68
159
71
65
149
74
65
138
63
56
76
33
29
18
10
8
18
12
11
16
8
7
99
48
44
163
86
79
159
81
73
152
75
65
150
70
64
149
76
68
138
66
57
62
33
26
25
15
13
27
17
15
27
17
15
23
17
14
23
18
14
24
18
15
39
31
20
38
30
19
78
44
35
115
58
48
112
56
47
94
45
38
62
34
24
37
21
16
29
21
18
32
23
18
31
23
13
32
23
14
32
22
13
31
22
18
32
23
17
31
22
16
31
22
17
29
23
18
30
23
18
31
21
17
31
21
17
31
21
18
29
19
17
36
21
14
202
125
114
224
135
126
222
128
123
214
120
113
206
112
105
195
99
93
186
92
90
179
86
80
173
85
81
175
87
82
176
91
86
173
85
80
175
89
82
172
87
80
169
82
79
171
83
81
166
78
73
161
76
71
161
72
64
158
69
64
156
70
68
136
64
59
43
18
12
16
12
9
13
9
9
34
13
11
157
87
77
175
97
84
169
96
82
161
87
76
150
76
66
137
67
57
110
54
43
30
16
13
24
19
13
25
19
14
28
17
16
28
18
16
26
17
13
23
18
13
40
32
21
133
85
72
222
129
117
207
118
107
187
99
90
163
76
68
140
61
56
124
54
46
98
46
40
49
27
19
28
19
15
26
21
14
26
20
14
31
21
15
31
21
16
29
21
16
28
23
17
30
21
17
32
23
18
30
22
16
31
22
16
30
21
16
30
20
16
60
34
27
204
123
112
231
137
130
228
134
126
218
121
115
210
115
109
193
98
92
186
85
86
182
84
83
175
84
81
174
85
78
176
87
82
177
88
84
171
89
83
172
87
79
170
83
78
172
84
79
166
79
74
162
78
73
159
74
69
161
71
67
159
72
67
158
78
71
122
60
54
62
29
25
35
15
13
126
64
61
174
96
85
172
93
82
169
95
81
164
89
77
152
78
67
129
63
53
48
23
15
26
17
13
25
19
16
25
19
16
28
19
13
24
18
15
24
18
14
23
18
12
39
32
26
114
80
67
234
151
138
238
152
138
222
136
120
205
111
104
187
93
89
169
77
75
146
62
60
132
57
56
90
42
34
36
23
13
26
19
13
27
17
15
28
18
16
29
19
17
26
20
15
29
19
14
28
19
15
30
20
16
29
20
15
30
20
16
28
18
13
93
55
47
226
139
126
236
142
135
228
133
127
215
118
113
202
107
101
187
93
86
182
90
84
177
86
82
177
85
82
175
86
82
174
86
84
174
87
83
168
83
78
168
83
80
170
85
79
167
82
78
166
81
76
165
81
76
167
83
77
161
77
72
164
79
76
168
84
77
165
79
75
164
83
75
162
85
77
163
83
75
162
82
72
165
87
77
159
81
71
153
77
66
145
74
64
84
41
33
25
17
13
27
18
13
25
18
15
25
19
15
28
18
13
22
19
12
22
19
11
23
18
15
39
35
28
35
32
21
62
41
33
180
117
104
234
150
134
226
132
120
213
114
105
199
99
95
179
84
78
153
65
63
127
52
47
102
44
36
37
19
14
23
15
12
21
16
12
23
18
14
25
19
16
26
20
15
26
20
15
26
20
14
28
21
15
28
19
16
29
19
16
134
79
73
215
131
118
215
126
115
203
116
107
194
109
100
189
104
99
178
93
89
178
90
87
177
91
84
174
88
81
174
86
81
172
86
83
175
91
81
175
88
79
164
79
72
167
84
78
165
82
75
162
82
73
163
82
76
165
86
78
163
80
73
169
81
77
169
80
77
166
81
72
165
77
72
161
77
68
161
77
72
152
73
67
149
76
69
150
75
68
151
73
65
125
65
54
41
22
19
25
18
13
27
17
15
25
18
15
25
18
15
28
17
16
24
18
13
23
18
12
23
18
12
41
32
26
38
34
22
38
34
22
40
30
19
171
112
98
239
149
134
225
132
123
209
110
105
196
97
92
166
70
68
134
56
54
118
47
44
94
38
33
32
17
14
23
18
15
20
16
12
21
16
12
27
17
15
27
17
15
28
18
16
28
18
16
27
19
15
55
30
24
202
134
123
217
139
128
207
123
113
197
115
104
181
103
96
169
93
82
172
93
83
178
94
84
175
95
87
171
92
85
170
90
83
171
91
86
171
87
78
169
84
77
167
87
78
166
86
77
165
87
77
162
85
77
160
83
77
158
80
74
166
83
76
167
83
71
167
81
76
167
79
76
167
82
73
168
79
72
168
78
79
159
74
72
150
74
69
138
68
55
134
65
51
80
40
30
25
17
10
27
18
13
27
18
13
26
18
15
25
17
14
26
16
14
25
16
13
23
19
15
23
18
14
39
34
26
38
34
23
37
33
22
41
33
22
46
31
22
213
139
121
237
152
136
225
132
124
203
105
98
187
98
90
166
86
80
146
72
65
137
63
54
114
53
47
36
17
13
19
16
12
19
15
11
21
16
12
22
17
13
23
18
14
26
16
14
23
12
8
168
114
105
199
131
117
197
119
107
204
120
110
195
110
101
188
107
95
175
101
88
171
92
80
170
88
80
167
87
76
170
91
83
170
94
83
172
91
84
170
87
81
171
87
79
160
80
73
163
83
76
167
88
81
165
88
80
164
85
79
161
81
76
168
90
80
168
83
77
166
81
78
168
83
74
166
80
73
166
80
75
161
77
71
158
73
66
154
74
69
142
72
63
117
57
48
37
19
13
26
17
14
27
17
15
26
16
15
26
17
14
25
17
14
22
18
14
22
17
11
24
18
11
27
17
15
42
33
25
43
35
23
42
33
27
42
32
23
37
34
24
103
64
52
238
151
137
240
157
141
231
148
131
209
129
115
191
113
104
176
100
87
160
84
72
149
73
65
132
65
56
67
33
27
22
16
11
21
18
10
22
13
12
24
15
13
18
13
10
87
49
48
184
111
103
190
110
101
188
102
92
195
109
96
190
104
95
180
102
96
176
101
92
174
100
88
165
91
78
169
93
81
171
95
82
165
87
80
167
92
85
171
95
85
172
92
83
168
87
80
162
87
80
158
85
78
165
88
77
168
88
81
167
87
80
166
87
78
166
86
74
166
83
79
168
85
81
167
82
79
167
81
75
168
77
72
165
78
74
158
72
68
139
61
56
113
56
47
28
15
10
24
18
14
24
18
15
24
18
15
24
19
15
24
19
15
26
16
14
23
18
14
23
18
14
24
19
15
43
35
24
41
35
24
39
34
24
42
33
24
42
33
24
43
33
23
154
103
88
246
165
149
243
172
150
232
153
139
215
128
116
202
123
106
185
111
92
164
91
79
150
77
68
143
72
63
125
67
57
87
48
41
47
26
19
30
14
8
62
32
27
173
105
93
221
137
127
219
131
121
207
118
109
198
110
100
187
104
94
178
103
92
172
103
88
170
103
89
165
92
82
164
91
82
172
98
91
171
96
88
168
95
88
162
85
79
164
87
79
167
88
80
164
91
85
162
89
84
164
87
79
160
82
73
167
90
79
168
92
82
167
91
85
170
90
81
174
88
81
170
86
78
174
87
80
167
85
77
162
77
73
158
73
66
143
65
57
112
51
46
27
15
10
25
17
13
26
16
14
22
18
12
23
18
14
23
18
14
23
17
14
25
15
14
27
17
16
27
17
12
40
35
23
41
35
24
41
34
22
43
33
27
41
35
23
40
35
24
40
33
22
135
90
76
248
169
153
242
160
146
233
139
129
216
126
116
200
121
107
181
106
94
165
92
83
154
82
73
149
78
70
144
74
66
150
79
70
157
82
73
178
96
85
199
118
102
214
126
113
211
123
108
201
120
108
193
112
99
180
101
88
176
102
89
170
104
90
170
104
88
167
99
86
164
93
81
167
95
83
165
92
87
164
93
86
165
89
83
166
89
81
167
90
80
165
94
84
166
97
87
167
92
84
169
96
83
169
95
82
163
87
79
164
88
82
170
88
79
173
90
78
177
91
79
174
87
78
170
84
79
166
81
76
159
76
72
142
65
59
104
50
44
26
15
10
23
17
14
23
16
13
23
18
13
23
18
13
23
18
14
22
18
14
24
17
17
24
17
16
23
17
15
40
35
26
43
36
25
43
35
24
44
36
26
44
37
26
44
36
28
44
36
25
43
33
23
164
111
96
244
164
149
243
152
142
226
127
121
208
112
106
195
106
97
177
95
88
163
82
76
148
74
69
145
70
65
148
70
65
153
71
69
168
84
79
176
94
87
187
100
91
195
107
97
191
104
92
184
97
88
179
94
89
172
94
87
168
98
87
170
101
86
167
100
84
167
96
85
160
86
77
163
90
84
159
88
83
167
92
85
168
91
82
169
91
81
168
95
86
163
90
82
166
92
84
174
102
89
176
104
91
172
95
87
167
90
81
168
85
76
173
89
80
172
88
81
169
85
75
170
84
77
164
80
73
159
78
70
140
65
57
91
45
35
24
14
11
23
17
14
23
18
14
22
17
13
23
18
14
22
17
14
23
18
15
24
19
14
25
19
13
24
19
14
41
37
25
43
37
25
43
37
25
44
36
26
43
36
25
42
35
28
42
35
28
42
36
25
62
44
34
215
145
131
241
157
141
236
143
132
217
118
114
201
105
100
183
92
87
167
80
74
158
76
73
141
65
60
146
68
63
154
73
70
159
76
75
163
82
79
170
83
79
174
86
81
172
90
81
168
85
80
168
87
81
170
90
85
162
89
84
163
92
84
163
94
85
163
92
82
163
89
82
162
88
84
158
86
81
166
91
82
167
90
81
164
86
81
164
90
82
165
92
83
165
92
79
167
95
83
171
99
88
173
99
87
171
94
81
172
91
80
175
92
83
174
89
83
169
85
77
163
79
71
158
76
69
154
74
65
137
65
54
80
39
30
24
15
13
24
17
13
24
19
14
24
18
14
23
18
13
24
19
15
25
18
13
27
19
14
26
18
13
23
19
14
42
38
27
41
37
26
42
38
26
45
37
24
42
38
26
42
38
29
41
38
26
43
35
26
40
35
23
83
59
46
229
154
140
237
152
136
238
149
135
227
137
127
209
112
107
188
97
90
169
82
77
164
85
79
161
80
75
155
75
69
158
78
74
160
79
74
162
77
74
163
75
75
161
76
70
161
78
74
160
81
76
157
82
77
156
85
83
158
88
80
161
91
83
162
92
82
165
94
85
157
84
78
166
93
85
168
95
85
168
89
82
166
89
82
167
91
80
170
92
83
168
92
85
168
95
83
169
97
86
170
97
86
170
96
85
171
94
83
170
86
80
171
86
78
172
87
81
168
84
79
159
80
73
150
73
66
129
61
49
61
30
22
25
16
14
25
18
13
24
19
14
22
17
12
23
17
13
23
18
14
27
18
17
25
17
16
27
18
14
25
20
16
43
39
30
44
40
29
43
39
28
46
38
29
44
39
28
43
39
28
41
37
26
41
37
29
43
37
25
41
36
22
136
91
78
244
161
149
244
161
147
241
151
140
232
135
128
222
130
123
195
107
103
189
104
98
173
87
87
162
80
80
163
81
77
167
84
81
164
80
77
158
78
68
160
73
68
153
72
66
156
77
70
155
78
70
150
79
74
158
85
79
158
87
79
159
86
81
166
93
87
163
90
82
163
90
81
166
92
81
167
91
78
165
88
79
166
89
80
167
90
83
170
93
84
168
96
83
164
92
82
164
87
79
168
90
82
173
91
81
173
90
80
172
88
78
172
86
81
166
84
78
158
80
73
150
74
63
123
60
48
46
23
17
27
17
15
25
17
14
23
18
14
23
18
14
23
18
14
23
18
14
25
18
15
24
19
14
26
19
12
23
19
13
44
40
28
45
41
29
44
40
28
46
42
28
44
40
28
44
40
28
44
40
29
43
39
27
44
39
27
45
37
26
73
56
41
225
148
133
244
161
145
243
153
142
241
147
139
233
144
134
217
130
123
200
112
106
182
98
94
165
87
81
165
84
80
164
83
81
164
83
77
162
78
75
157
77
72
155
75
71
154
73
69
152
75
68
145
75
71
143
75
67
152
79
72
155
85
76
158
88
77
163
90
81
159
84
76
164
91
82
164
86
78
165
88
78
166
92
80
168
88
82
169
93
85
171
104
89
170
97
83
168
90
79
169
90
79
170
91
80
171
91
82
171
87
80
169
88
79
166
86
77
159
79
73
146
75
64
116
60
50
38
21
15
25
15
14
25
18
13
24
18
15
26
17
14
23
18
14
23
18
14
27
16
15
27
18
13
26
18
13
23
18
15
45
42
27
46
43
30
45
43
30
46
41
30
46
43
28
46
42
28
49
40
32
47
43
31
46
42
30
44
40
28
50
44
31
190
130
117
250
168
153
248
164
152
246
157
148
234
144
135
226
142
132
215
136
127
196
116
108
177
100
94
168
93
85
165
85
80
160
79
75
159
75
73
158
77
74
157
77
71
153
72
68
153
76
70
148
74
68
143
73
66
142
73
66
146
77
69
150
81
73
157
84
77
157
84
77
159
86
75
163
89
80
161
87
78
164
88
80
167
90
81
167
91
84
164
90
80
169
90
81
166
88
81
166
92
80
170
96
82
170
91
83
172
95
88
168
92
84
165
89
81
156
83
74
144
74
66
105
54
42
30
20
14
25
16
16
24
18
13
23
18
14
23
18
15
23
18
14
25
19
16
26
16
14
22
17
13
23
18
14
22
17
13
45
41
31
47
44
30
47
45
30
49
46
30
49
45
32
46
43
30
46
43
30
46
42
32
46
41
31
45
41
30
44
38
28
109
79
64
247
166
151
251
170
155
246
161
148
236
151
138
226
145
132
219
138
130
198
123
114
181
103
94
176
99
93
166
89
84
161
82
78
157
76
73
154
77
71
154
77
72
153
74
69
153
75
70
149
76
69
145
72
65
145
73
63
143
76
66
142
75
67
151
80
72
158
88
78
158
87
76
163
86
75
162
85
77
161
83
77
168
91
80
167
94
83
165
94
82
165
94
82
165
91
83
166
94
80
170
92
81
169
92
86
168
87
83
167
86
78
163
84
74
153
77
71
136
69
63
90
45
39
25
16
13
22
17
13
22
17
13
23
17
13
21
17
12
25
16
14
26
16
14
23
18
14
23
18
14
24
19
15
23
18
14
47
43
32
47
45
30
47
45
34
49
44
36
47
43
32
46
42
32
46
42
31
49
40
31
45
43
31
44
43
31
45
41
30
41
38
26
142
99
89
248
171
157
246
168
155
240
162
149
232
149
139
224
142
131
199
129
114
184
115
104
176
98
93
169
88
84
163
83
79
161
86
79
158
84
78
156
83
76
150
77
70
149
71
67
151
74
73
147
69
67
145
73
66
141
72
63
141
72
68
147
73
68
152
78
70
157
85
74
162
85
71
163
86
76
166
89
79
162
86
75
165
89
78
162
93
78
162
87
78
165
93
81
168
92
81
168
90
82
168
90
81
166
86
78
166
86
78
160
80
71
149
77
67
130
67
55
70
37
28
23
16
11
22
17
13
24
16
14
25
15
14
26
15
14
24
18
13
23
17
12
23
19
15
23
18
14
22
18
13
22
19
12
47
44
38
49
47
37
47
44
34
48
44
31
48
44
32
48
44
32
48
46
33
48
45
33
46
42
28
44
40
30
46
42
31
46
41
33
45
41
29
150
107
93
242
168
154
250
184
167
244
175
160
225
144
133
205
134
122
184
116
105
173
95
90
171
94
86
165
87
80
165
84
77
159
81
74
156
83
78
151
78
74
149
71
67
150
73
67
152
75
65
148
75
69
141
78
68
138
69
60
143
69
62
147
72
65
149
76
63
158
85
71
161
83
76
160
83
74
160
83
73
163
87
79
166
93
82
166
88
79
163
86
76
165
87
77
168
87
80
170
90
79
164
85
75
161
79
73
152
75
68
147
76
66
123
63
49
50
27
19
23
13
11
21
16
13
21
17
12
21
16
12
24
16
13
25
15
14
21
17
14
24
18
14
21
18
13
22
18
12
24
18
14
54
47
36
50
48
35
50
48
35
50
46
34
49
45
34
50
46
36
49
47
36
48
44
32
49
43
31
45
42
30
46
42
30
44
41
28
43
39
27
44
37
27
161
118
101
250
178
158
248
178
162
231
152
139
204
131
120
185
114
107
176
100
94
173
97
91
168
93
87
163
91
84
161
88
82
156
87
79
154
80
74
156
78
72
154
77
71
151
72
68
147
76
70
141
73
65
137
70
61
140
70
60
142
70
62
150
72
65
157
80
70
160
84
72
159
81
75
157
84
73
159
87
75
164
90
76
167
88
76
165
85
77
162
82
72
168
86
76
167
83
75
164
86
76
161
85
74
154
78
67
140
72
61
108
56
45
30
16
11
24
14
12
19
14
11
21
16
13
22
17
14
21
17
12
22
18
13
23
18
13
22
17
13
22
17
13
24
18
15
23
18
14
51
45
33
52
49
37
49
48
33
52
48
37
50
46
34
48
44
31
48
45
32
47
45
32
49
46
33
50
46
34
49
45
33
49
42
33
45
43
28
45
41
33
42
34
24
175
124
109
245
172
154
231
155
138
205
137
122
188
116
106
178
99
91
174
99
89
168
95
89
162
93
88
156
87
79
156
88
78
157
83
78
157
82
77
154
78
70
149
78
67
147
78
70
147
77
66
140
75
65
140
69
61
146
70
64
151
72
64
153
77
65
157
79
68
156
78
73
158
80
77
160
86
79
162
86
75
163
86
74
164
83
75
163
83
77
164
81
70
162
82
76
161
83
76
160
80
71
154
77
66
135
67
55
77
39
30
19
12
11
21
16
12
20
16
12
22
17
13
22
18
15
22
17
14
22
17
14
23
17
15
22
17
14
22
17
13
23
18
14
23
18
14
49
50
33
50
50
37
51
51
38
52
50
36
53
49
37
51
47
40
48
48
33
51
48
33
50
46
32
49
46
32
48
46
35
47
44
31
48
44
33
46
44
32
47
41
30
62
50
38
199
141
122
229
153
134
207
138
123
189
116
102
176
100
93
168
97
94
160
93
84
156
82
78
158
89
81
163
90
80
159
86
79
157
84
77
151
77
74
154
76
71
154
76
68
152
73
67
146
74
67
142
72
62
146
70
62
145
68
59
147
70
62
150
70
58
154
77
65
156
79
73
160
82
75
164
82
71
162
81
69
164
84
75
163
81
70
160
76
67
161
75
68
156
78
70
155
81
70
149
76
64
120
61
50
44
23
15
19
15
11
20
16
13
25
14
12
23
16
13
22
18
15
23
18
13
22
17
14
23
18
14
22
17
15
25
19
15
25
17
14
23
19
14
52
48
36
54
50
37
55
52
39
56
53
36
53
50
35
51
49
35
54
51
39
51
49
36
51
50
33
50
47
37
51
49
37
50
46
36
50
46
36
49
46
34
44
45
31
44
45
32
66
50
36
215
155
132
207
141
123
190
121
110
178
106
96
170
100
91
163
93
85
162
89
80
162
89
82
160
87
80
157
84
78
155
82
73
158
84
75
157
83
70
157
81
68
155
78
68
147
74
67
145
75
63
146
71
64
144
70
62
146
66
62
147
70
63
151
78
67
152
78
68
159
82
70
162
83
70
161
81
71
161
81
70
157
77
70
159
78
67
155
71
61
154
77
69
154
79
72
143
70
59
100
48
39
26
16
13
20
17
12
21
16
12
21
16
13
22
17
13
24
18
15
26
15
14
21
15
13
21
16
13
22
17
14
22
17
14
23
17
12
23
19
15
59
51
41
59
52
37
59
52
40
54
55
41
55
55
42
51
51
42
54
51
42
55
51
39
53
50
38
55
53
40
52
48
43
49
50
37
49
48
35
51
49
36
51
49
36
47
44
32
45
42
32
76
57
41
201
139
120
193
121
107
180
108
96
178
108
96
172
103
90
169
96
85
163
86
81
156
78
75
158
84
76
150
81
70
155
82
73
154
81
74
153
78
71
152
78
68
152
81
71
148
78
68
143
71
59
146
75
64
150
76
63
149
70
63
151
74
65
154
77
73
154
78
65
157
77
68
157
78
64
156
79
68
157
77
71
158
77
68
153
73
63
150
73
59
144
74
58
131
66
53
67
32
29
19
13
10
19
15
11
21
16
12
20
16
13
21
16
13
23
18
14
23
17
16
22
17
14
21
16
12
21
16
14
24
19
16
24
18
15
24
19
13
55
53
38
56
56
39
54
54
37
57
55
40
57
53
38
58
53
39
60
56
41
57
55
40
54
53
34
54
52
37
53
52
36
54
51
37
52
49
36
49
47
32
52
47
35
47
47
33
49
44
33
45
45
30
116
83
68
187
116
104
180
108
94
177
104
92
174
100
89
173
95
90
165
88
80
160
84
76
154
85
75
151
77
70
154
77
67
155
79
66
153
77
64
155
81
66
150
79
68
148
78
67
152
81
71
147
75
62
145
70
62
147
73
60
150
76
62
154
77
67
154
74
66
156
76
65
155
76
65
151
72
63
151
72
59
152
73
62
146
68
57
143
71
57
139
70
55
118
61
46
35
21
12
22
14
11
23
15
12
20
15
11
23
18
15
23
18
14
22
17
13
22
17
13
21
17
13
21
16
12
23
18
14
26
16
14
23
15
12
23
19
14
62
60
45
59
57
42
61
58
44
57
57
42
56
55
40
57
56
41
55
54
39
54
54
42
56
55
38
57
54
42
55
55
43
54
54
40
53
52
42
55
53
38
52
50
34
52
50
35
47
44
34
48
44
36
46
41
34
138
96
87
178
111
94
179
106
93
178
102
90
174
98
86
167
93
82
162
90
79
153
82
73
154
78
69
156
79
69
153
76
65
154
78
70
156
78
68
151
78
70
146
73
64
152
74
61
149
79
68
149
80
66
147
73
65
152
76
67
156
80
67
156
80
67
154
76
63
152
74
64
149
75
64
151
72
61
144
70
59
137
66
55
132
66
50
131
69
53
95
48
42
21
12
10
21
14
13
20
15
11
23
15
13
21
16
13
22
17
14
20
17
13
23
17
16
22
17
14
22
17
14
22
17
13
24
15
12
24
17
14
21
17
13
60
57
45
62
58
47
61
57
48
61
60
48
60
60
44
60
60
45
60
59
47
60
60
47
60
59
47
57
57
46
58
58
47
52
53
38
53
54
39
54
52
41
54
52
41
52
49
38
49
47
36
48
45
36
45
44
35
41
39
28
121
81
72
175
109
94
175
105
88
173
100
87
166
95
85
158
85
79
159
83
74
155
81
69
153
81
68
154
80
67
155
80
67
154
76
62
150
76
69
147
74
66
144
71
65
149
73
63
150
76
66
147
73
63
153
74
63
153
73
66
154
75
68
154
78
65
148
72
64
143
70
62
144
74
56
138
68
54
133
66
49
124
58
47
126
66
54
58
32
24
19
12
11
20
15
14
20
15
11
20
14
13
21
16
14
22
17
15
22
17
14
22
16
13
21
18
14
22
17
13
23
18
14
23
18
15
21
18
14
21
17
13
64
62
45
64
63
53
64
63
54
65
62
51
66
64
49
60
60
44
59
60
44
59
60
45
58
59
44
59
61
41
56
58
39
57
58
41
53
54
39
55
54
40
55
51
39
54
51
39
51
48
37
51
49
35
46
46
34
43
43
31
47
42
31
111
79
64
173
110
94
168
102
87
163
95
80
165
97
80
166
98
84
156
90
75
151
81
70
150
76
66
153
78
65
152
75
62
149
75
59
144
74
60
142
73
58
142
67
54
144
70
59
147
72
59
150
72
60
148
71
60
151
72
63
153
75
66
148
73
60
145
75
64
137
69
51
135
66
52
126
60
43
116
57
42
106
58
41
24
11
10
18
13
14
19
14
13
19
14
10
22
14
14
21
16
12
22
17
14
21
17
14
24
16
17
23
17
14
25
17
16
22
18
14
22
17
14
20
18
15
21
18
15
66
65
46
65
65
50
67
68
52
65
67
49
64
65
51
62
63
50
63
64
49
61
62
47
62
63
49
61
62
45
61
61
48
59
60
41
58
59
40
56
56
40
54
54
40
53
54
39
49
48
33
50
48
35
47
46
34
44
44
34
45
46
35
41
39
26
139
98
75
176
110
92
170
101
85
167
97
80
164
92
78
159
88
73
160
88
74
155
83
66
156
81
64
156
79
66
151
77
65
147
77
64
136
74
57
137
70
56
139
69
56
143
69
57
146
68
57
145
70
59
147
71
60
149
72
58
144
71
58
141
72
57
132
67
51
131
64
47
125
59
49
111
57
44
62
30
21
19
13
11
19
14
13
19
14
12
20
14
12
23
14
12
20
15
12
21
16
14
21
16
14
24
16
11
22
17
12
23
17
16
23
17
15
21
17
14
22
17
15
23
16
14
65
67
47
67
68
49
69
71
50
71
70
45
71
72
50
67
69
49
66
69
52
66
69
52
65
68
52
61
64
46
61
61
49
59
60
48
59
59
44
56
57
43
57
58
44
53
54
42
55
55
44
55
53
40
52
52
38
49
49
37
45
45
37
44
42
30
113
72
52
177
110
85
174
106
84
170
102
76
166
98
79
164
97
80
163
97
79
166
98
78
163
91
76
163
87
71
157
86
72
151
82
66
142
76
57
143
76
62
139
74
57
142
74
56
146
75
64
143
72
62
144
69
60
140
69
56
139
70
57
138
71
55
129
63
47
125
59
44
112
55
38
92
48
30
28
16
14
17
12
11
18
13
10
19
13
13
18
13
13
18
13
13
20
15
12
20
15
14
21
15
15
20
18
15
20
16
14
25
16
14
21
16
13
20
16
13
22
17
15
22
17
14
73
75
55
70
71
54
74
75
59
71
73
55
71
72
54
70
70
57
69
67
55
67
67
50
67
68
52
66
68
50
64
67
50
63
65
49
60
61
45
59
59
46
57
58
43
56
57
41
54
55
41
52
53
39
50
51
37
48
49
35
48
49
39
49
42
29
139
89
66
175
107
81
172
104
79
169
102
74
169
102
76
167
99
77
167
98
79
166
98
76
161
92
76
158
85
67
151
82
67
145
77
60
139
73
56
140
75
62
138
75
58
138
76
62
141
75
59
142
75
60
142
73
56
139
71
55
136
66
56
133
65
56
130
63
46
121
55
41
110
51
39
60
30
23
16
10
8
17
12
13
18
11
11
18
12
12
19
12
12
20
14
14
20
14
15
19
14
14
19
14
14
20
16
12
21
15
16
20
16
13
21
16
13
21
14
16
24
17
17
20
16
12
73
74
55
75
77
56
77
78
59
74
77
55
75
75
60
75
75
55
72
72
59
76
76
62
70
72
53
65
68
49
65
68
51
64
66
48
59
61
41
61
63
49
63
65
51
60
60
46
57
60
44
56
56
45
52
53
35
52
53
39
49
47
35
64
50
36
157
98
74
172
100
79
173
102
82
174
104
80
170
103
82
168
102
79
167
100
83
167
101
77
165
97
77
161
90
69
157
85
70
151
83
68
153
81
67
152
83
67
150
85
63
144
78
63
145
79
66
141
77
61
136
74
56
137
70
54
133
67
51
127
64
50
126
61
44
117
55
39
95
49
38
21
8
8
17
11
10
17
11
11
18
13
13
20
11
12
21
12
13
23
13
14
22
13
11
18
15
13
18
15
14
20
14
16
24
14
13
21
17
14
22
17
14
22
17
14
21
16
15
21
18
12
82
80
64
80
80
59
76
80
59
79
81
61
76
79
63
76
80
64
74
75
56
75
75
60
72
76
57
71
72
52
70
73
55
66
68
47
68
69
53
66
69
51
65
68
51
61
65
47
60
62
42
57
58
43
55
53
40
52
52
40
52
49
35
100
72
52
165
102
73
172
101
78
170
100
74
164
95
69
163
96
71
164
94
74
165
98
77
164
97
73
164
97
79
162
95
71
154
86
70
150
82
63
152
85
70
148
84
67
146
84
66
139
77
59
145
78
66
147
78
67
146
81
62
140
76
53
138
73
54
129
64
47
120
61
40
104
50
35
41
17
13
15
9
9
15
11
10
16
12
11
17
10
13
18
12
12
17
12
13
19
14
14
22
12
11
22
14
12
19
14
11
20
15
15
21
16
13
20
15
12
20
15
12
20
16
13
24
15
13
24
15
20
83
84
65
80
83
62
83
87
67
81
83
61
80
83
63
80
81
68
78
81
64
78
80
63
73
77
57
72
75
58
72
75
55
70
74
53
66
68
54
66
68
55
63
67
52
62
64
51
61
62
49
58
58
41
55
54
40
54
53
39
49
46
32
131
89
67
165
100
72
166
101
74
169
98
77
167
97
70
166
96
70
160
89
72
157
90
70
163
95
71
166
99
75
159
93
70
150
88
69
150
87
67
152
87
65
152
88
70
144
83
64
134
75
58
134
78
57
141
80
62
141
78
60
140
77
61
136
72
55
135
67
52
127
66
51
88
46
33
20
10
12
15
9
9
15
9
9
17
11
11
16
10
15
18
13
13
18
12
12
18
13
12
16
14
12
20
13
14
20
14
14
19
16
14
18
15
14
20
15
15
24
13
15
20
14
14
21
15
15
19
17
15
87
89
71
85
87
70
86
90
66
84
88
63
82
89
69
82
89
73
82
87
73
80
84
67
78
84
63
77
81
64
75
80
62
72
75
58
71
72
54
67
70
56
65
67
49
63
65
47
61
62
45
57
58
42
54
55
39
51
52
36
68
57
40
153
98
70
169
104
72
169
102
72
164
99
71
163
94
68
163
95
72
163
96
71
162
94
71
159
92
66
164
93
70
159
89
63
151
86
67
142
84
61
146
82
64
142
80
62
131
75
49
130
76
49
135
73
56
140
77
59
140
78
60
138
77
60
136
75
56
133
70
54
118
60
39
58
29
22
13
9
11
15
11
10
15
11
11
15
11
12
16
11
13
19
10
13
17
13
14
17
12
14
21
11
14
18
15
15
19
15
14
19
14
16
21
14
15
22
15
15
23
15
15
23
15
19
23
14
15
21
16
15
